<?xml version="1.0" encoding="utf-8"?>
<!-- Generator: Adobe Illustrator 22.1.0, SVG Export Plug-In . SVG Version: 6.00 Build 0)  -->
<svg version="1.1" id="Layer_1" xmlns="http://www.w3.org/2000/svg" xmlns:xlink="http://www.w3.org/1999/xlink" x="0px" y="0px"
	 viewBox="0 0 384.2 129.3" style="enable-background:new 0 0 384.2 129.3;" xml:space="preserve">
<style type="text/css">
	.st0{fill:#FFFFFF;}
	.st1{fill:#0F96A0;}
</style>
<title>CC_landscape_white</title>
<g id="Layer_2_1_">
	<g id="Layer_1-2">
		<path class="st0" d="M54.6,54.8c2.5-2.6,5.9-4,9.4-4.1c6.1,0,10.8,3.9,12.4,9.9h-3.8c-1.2-3.8-4.7-6.3-8.5-6.2
			c-2.6,0.1-5,1.1-6.8,3c-3.6,3.9-3.6,9.8,0,13.6c1.8,1.8,4.3,2.8,6.8,2.8c4,0.1,7.6-2.5,8.8-6.4h3.8c-1.5,6.1-6.4,10.1-12.6,10.1
			c-3.5,0-6.9-1.4-9.2-3.9C49.7,68.5,49.7,60.2,54.6,54.8L54.6,54.8z"/>
		<path class="st0" d="M89.8,77.9c-5.5,0-11-3.6-11-10.6s5.6-10.6,11.1-10.6c5.6,0,11,3.6,11,10.6S95.4,77.9,89.8,77.9z M89.8,74.6
			c4.1,0,7.4-3.2,7.4-7.3s-3.2-7.4-7.3-7.4c-3.7,0-7.4,2.5-7.4,7.4c-0.2,3.8,2.9,7.1,6.8,7.3C89.5,74.6,89.6,74.6,89.8,74.6z"/>
		<path class="st0" d="M107.8,57v2.6c1.5-2.2,3.8-2.9,6.3-2.9c6.3,0,8.9,3.9,8.9,9.8v11h-3.7v-11c0-3.9-1-6.5-5.4-6.6
			c-4-0.1-6.2,2.8-6.2,6.4v11.2H104V57H107.8z"/>
		<path class="st0" d="M131.5,52.5v4.6h4.6v3h-4.6v11.4c0,3.1,1.9,3.2,4.7,3v3.1c-5,0.4-8.3-0.7-8.3-6.1V60h-3.1v-3h3.1v-3.8
			L131.5,52.5z"/>
		<path class="st0" d="M159.4,68.2H142c0,4,3.9,6.5,7,6.5c2.5,0.1,4.9-1.2,6.2-3.4h3.9c-1.5,4.2-5.6,7-10,6.8
			c-5.3,0-10.6-3.6-10.6-10.6s5.3-10.6,10.6-10.6c5.1,0,10.1,3.2,10.5,9.7C159.6,67,159.5,67.6,159.4,68.2z M155.7,65.1
			c-0.7-3.7-3.7-5.2-6.6-5.2s-6.1,1.5-6.8,5.2H155.7z"/>
		<path class="st0" d="M166.2,57v2.6c1.5-2.2,3.8-2.9,6.4-2.9c6.3,0,8.9,3.9,8.9,9.8v11h-3.8v-11c0-3.9-1-6.5-5.4-6.6
			c-4-0.1-6.2,2.8-6.2,6.4v11.2h-3.8V57H166.2z"/>
		<path class="st0" d="M190,52.5v4.6h4.6v3H190v11.4c0,3.1,1.9,3.2,4.7,3v3.1c-5,0.4-8.3-0.7-8.3-6.1V60h-3.1v-3h3.1v-3.8L190,52.5z
			"/>
		<path class="st0" d="M209.9,54.8c2.5-2.6,5.9-4,9.3-4.1c6.1,0,10.8,3.9,12.4,9.9h-3.8c-1.2-3.8-4.7-6.3-8.5-6.2
			c-2.6,0.1-5,1.1-6.8,3c-3.6,3.9-3.6,9.8,0,13.6c1.8,1.8,4.2,2.8,6.8,2.8c4,0.1,7.6-2.5,8.8-6.4h3.8c-1.5,6.1-6.4,10.1-12.6,10.1
			c-3.5,0-6.9-1.4-9.2-3.9c-2.5-2.6-3.8-6-3.9-9.5C206.2,60.8,207.5,57.4,209.9,54.8z"/>
		<path class="st0" d="M245.1,77.9c-5.6,0-11-3.6-11-10.6s5.6-10.6,11.1-10.6c5.6,0,11,3.6,11,10.6S250.6,77.9,245.1,77.9z
			 M245.1,74.6c4.1,0,7.4-3.2,7.4-7.3s-3.2-7.4-7.3-7.4c-3.8,0-7.4,2.5-7.4,7.4c-0.1,3.9,2.9,7.2,6.9,7.3
			C244.8,74.6,245,74.6,245.1,74.6z"/>
		<path class="st0" d="M263,57v2.6c1.5-2.2,3.8-2.9,6.4-2.9c6.3,0,8.9,3.9,8.9,9.8v11h-3.7v-11c0-3.9-1-6.5-5.4-6.6
			c-4-0.1-6.2,2.8-6.2,6.4v11.2h-3.8V57H263z"/>
		<path class="st0" d="M286.9,52.5v4.6h4.5v3h-4.5v11.4c0,3.1,1.9,3.2,4.7,3v3.1c-5,0.4-8.3-0.7-8.3-6.1V60h-3.2v-3h3.1v-3.8
			L286.9,52.5z"/>
		<path class="st0" d="M298.3,57v2.6c2-2.8,5-3.4,8.2-2.7v3.3c-3.4-1-7,0.9-7.9,4.3c-0.2,0.7-0.3,1.4-0.3,2.1v11.1h-3.7V57H298.3z"
			/>
		<path class="st0" d="M319.2,77.9c-5.5,0-11-3.6-11-10.6s5.6-10.6,11.1-10.6s11,3.6,11,10.6S324.7,77.9,319.2,77.9z M319.2,74.6
			c4.1,0,7.4-3.2,7.4-7.3s-3.2-7.4-7.3-7.4c-3.8,0-7.4,2.5-7.4,7.4c-0.1,3.9,2.9,7.2,6.9,7.3C318.9,74.6,319.1,74.6,319.2,74.6z"/>
		<path class="st0" d="M337.1,77.6h-3.8V51h3.8V77.6z"/>
		<path class="st0" d="M344.6,77.6h-3.8V51h3.8V77.6z"/>
		<path class="st0" d="M369.3,68.2h-17.4c0,4,3.9,6.5,7,6.5c2.5,0.1,4.9-1.2,6.2-3.4h3.9c-1.5,4.2-5.6,6.9-10,6.8
			c-5.3,0-10.6-3.6-10.6-10.6s5.3-10.6,10.7-10.6c5.1,0,10.1,3.2,10.5,9.7C369.4,67,369.4,67.6,369.3,68.2z M365.4,65.1
			c-0.7-3.7-3.7-5.2-6.6-5.2s-6.1,1.5-6.9,5.2H365.4z"/>
		<path class="st0" d="M376,57v2.6c2-2.8,5-3.4,8.2-2.7v3.3c-3.4-1-7,0.9-7.9,4.3c-0.2,0.7-0.3,1.4-0.3,2.1v11.1h-3.7V57H376z"/>
		<path class="st0" d="M64.6,119.1c-30.1,0-54.4-24.3-54.4-54.4c0-13.6,5.1-26.7,14.3-36.8l-7.9-6.5c-23.8,26.5-21.8,67.4,4.9,91.3
			c12.4,11.1,27.8,16.6,43.2,16.6c17.7,0,35.3-7.2,48.1-21.5c1-1.1,1.9-2.2,2.9-3.4l-7.9-6.5C97.4,111.3,81.5,119,64.6,119.1z"/>
		<path class="st0" d="M64.3,109.2c14,0,27.1-6.6,35.6-17.7L92,85c-11.1,15.3-32.6,18.7-47.9,7.5s-18.8-32.7-7.6-48
			c1-1.4,2.1-2.7,3.3-3.9L32,34c-16.9,17.9-16.1,46,1.8,62.9C41.9,104.8,52.9,109.2,64.3,109.2L64.3,109.2z"/>
		<path class="st1" d="M64.3,30.3c10.9,0,21.2,5.2,27.6,14l7.9-6.5C85,18.2,57.1,14.3,37.6,29.1c-2,1.5-3.9,3.2-5.7,5.1l7.8,6.6
			C46.1,34.1,55,30.3,64.3,30.3z"/>
		<path class="st1" d="M64.6,10.2c16.9,0,32.8,7.8,43.1,21.2l7.9-6.5C93.7-3.3,53.1-8.3,24.9,13.6c-3,2.3-5.8,5-8.3,7.7l7.8,6.6
			C34.8,16.6,49.3,10.2,64.6,10.2z"/>
	</g>
</g>
<g id="Layer_2_3_">
	<g id="Layer_1-2_2_">
		<path class="st0" d="M374.3,95.1c0.3-1.8,2-3.1,3.9-3c1.8-0.1,3.6,1.2,3.9,3H374.3z M384.2,95.8c-0.2-3.3-3.1-5.9-6.6-5.7
			c-3.2,0.2-5.7,2.9-5.7,6.2c0,3.4,2.8,6.1,6.1,6.1c2.5,0,4.7-1.5,5.7-3.9h-2.3c-0.8,1.3-2,2-3.6,1.9c-2.2,0-3.9-1.6-4-3.8h9.9
			C384.2,96.5,384.2,96.2,384.2,95.8 M364,90.6v11.7h2.2v-6.5c0-2,1.5-3.8,3.6-3.8c0.4,0,0.9,0,1.2,0.2v-1.9
			c-1.8-0.5-3.8,0.1-4.8,1.6v-1.4L364,90.6z M359.1,96.3c0,2.4-1.9,4.2-4.2,4.2c-2.4,0-4.2-1.9-4.2-4.2l0,0
			c-0.1-2.2,1.6-4.1,3.8-4.2c0.1,0,0.2,0,0.3,0c2.3-0.1,4.2,1.7,4.3,4C359.1,96.2,359.1,96.3,359.1,96.3 M359.1,90.6v1.6
			c-1.1-1.2-2.6-1.9-4.2-1.8c-3.3,0-6.1,2.7-6.1,6.1c0,3.3,2.7,6.1,6.1,6.1l0,0c1.6,0.1,3.1-0.5,4.2-1.8v1.6h2.2V90.6H359.1z
			 M331.5,90.6l3.9,11.8h1.6l1.5-4.6l1.1-3.6l1.1,3.6l1.5,4.6h1.6l3.9-11.8h-2.5l-1,3.2l-1.4,5.1l-2.4-8.2h-1.9l-2.3,8.2l-1.4-5.1
			l-1-3.2H331.5z M325.6,88.3v2.3h-1.8v1.7h1.8V99c0,3.2,1.9,3.8,4.8,3.6v-1.7c-1.6,0.1-2.7,0-2.7-1.6v-6.8h2.6v-1.8h-2.6V88
			L325.6,88.3z M320.4,92.3h2.4v-1.8h-2.4c0-1.8,1.2-1.9,2.7-1.8v-1.8c-3.1-0.2-4.8,0.8-4.8,3.6h-1.8v1.8h1.7v10h2.2L320.4,92.3z
			 M304.2,96.3c0-2.4,1.8-4.3,4.2-4.3c2.4,0,4.3,1.8,4.3,4.2c0,2.4-1.8,4.3-4.2,4.3h-0.1c-2.3,0.1-4.1-1.7-4.2-4
			C304.2,96.5,304.2,96.4,304.2,96.3 M314.8,96.3c0.1-3.6-2.6-6.6-6.1-6.7c-3.6-0.1-6.6,2.6-6.7,6.1c-0.1,3.6,2.6,6.6,6.1,6.7
			c0.1,0,0.2,0,0.3,0c3.3,0.2,6.1-2.3,6.4-5.6C314.8,96.7,314.8,96.5,314.8,96.3 M299.8,90.9c-0.4-2.5-2.7-4.3-5.2-4.1
			c-1.7,0-3.4,0.6-4.6,2c-0.6,0.9-1,1.8-0.9,2.9l0,0c0.2,3.2,3,3.8,5.4,4c1.6,0.1,3.1,0.3,3.3,1.5c0,0.2,0,0.3,0,0.5
			c0,1.6-1.8,2.5-3.4,2.5s-3.2-0.8-3.3-2.2v-0.2h-2.3v0.4c0.3,2.7,3.2,4.1,5.5,4.1c2.8,0,5.7-1.7,5.7-4.6c0-0.3,0-0.6-0.1-1
			c-0.6-2.5-3.2-3-5.3-3.2c-1.6-0.1-3.3-0.3-3.4-1.9c0-0.5,0.1-1,0.4-1.4c0.8-0.8,1.7-1.2,2.8-1.2c1.4-0.2,2.7,0.6,3.2,1.9
			L299.8,90.9z M278.8,87.4c0,0.8,0.6,1.3,1.3,1.3c0.8,0,1.3-0.6,1.3-1.3c0-0.8-0.6-1.3-1.3-1.3C279.3,86.1,278.8,86.7,278.8,87.4
			 M281.1,102.2H279V90.3h2.2v11.9C281.2,102.2,281.1,102.2,281.1,102.2z M274.1,97.8c-0.4,1.6-1.9,2.8-3.7,2.8
			c-2.4,0-4.2-1.9-4.2-4.2c0-2.4,1.9-4.2,4.2-4.2c1.7,0,3.3,1.1,3.8,2.8h2.3c-0.8-3.3-4.1-5.3-7.4-4.5c-2.7,0.6-4.6,3.1-4.7,5.9
			c-0.1,3.2,2.4,6,5.6,6.1c0.2,0,0.3,0,0.5,0c2.9,0.1,5.4-1.8,5.9-4.7L274.1,97.8z M259.3,87.5c0,0.8,0.6,1.3,1.3,1.3
			c0.6,0,1.3-0.6,1.3-1.3c0-0.8-0.6-1.3-1.3-1.3S259.3,86.8,259.3,87.5 M261.7,102.3h-2.2v-12h2.2V102.3z M252.7,88.3v2.3h-1.8v1.7
			h1.8V99c0,3.2,1.9,3.8,4.8,3.6v-1.7c-1.6,0.1-2.7,0-2.7-1.6v-6.8h2.6v-1.8h-2.6V88L252.7,88.3z M242.5,93.8c0-1.2,1.2-1.7,2.6-1.7
			c1.4,0,2.4,0.5,2.5,1.6h2.2c-0.1-2.5-2.3-3.4-4.6-3.4s-4.7,1-4.7,3.7s2.5,3.3,4.6,3.4c1.1,0,2.9,0.3,2.9,1.6
			c0,1.3-1.6,1.7-2.7,1.7c-1.5,0-2.8-0.6-2.8-1.9h-2.2c0.1,2.8,2.5,3.9,4.8,3.9s5-0.9,5-3.6s-2.6-3.3-4.8-3.6
			C244.2,95.3,242.5,95.3,242.5,93.8L242.5,93.8z M237.9,102.2V90.4h-2.2V97c0.2,1.8-1.2,3.4-3,3.7c-0.2,0-0.3,0-0.5,0
			c-2.5,0-3-1.6-3-3.8v-6.5H227v6.5c0,3.4,1.6,5.7,5.2,5.7c1.5,0.1,2.9-0.5,3.8-1.7v1.6L237.9,102.2z M217.7,95.5l5.6,6.8h2.8
			l-4.8-5.8c2.4-0.3,4-2.4,4-4.6c0.1-2.7-2-5-4.7-5.1c-0.1,0-0.2,0-0.2,0h-5.6v15.4h2.2V89h3.4c1.5,0,2.8,1.2,2.8,2.7v0.1
			c0.1,1.4-1,2.7-2.5,2.8c-0.1,0-0.2,0-0.3,0h-2.6L217.7,95.5L217.7,95.5z M201.8,99.3l-1.3-3.9l-2.2-5.3H196l4.6,11.3l-1.6,4.3h2.3
			l6.2-15.6h-2.3l-2,5.3L201.8,99.3z M185.4,96.3c0.1-2.2,2-3.9,4.2-3.7c2.2,0.1,3.9,2,3.7,4.2c-0.1,2.2-1.9,3.8-4.1,3.8
			s-3.9-1.8-3.9-4C185.3,96.5,185.3,96.4,185.4,96.3 M185.4,87h-2.2v15.3h2.2v-1.6c1,1.2,2.5,1.9,4,1.8c3.3,0,6.1-2.7,6.1-6.1
			c0-3.3-2.7-6.1-6.1-6.1c-1.5-0.1-3,0.5-4,1.7V87z"/>
	</g>
</g>
</svg>
